<svg width="40" height="41" viewBox="0 0 40 41" fill="none" xmlns="http://www.w3.org/2000/svg">
<g clip-path="url(#clip0_1_110)">
<path opacity="0.982" fill-rule="evenodd" clip-rule="evenodd" d="M19.6485 -0.0400391C19.8568 -0.0400391 20.0651 -0.0400391 20.2735 -0.0400391C20.4019 0.0253395 20.493 0.13211 20.5469 0.280273C20.599 1.50814 20.599 2.73601 20.5469 3.96387C20.2561 4.3657 19.9046 4.43243 19.4922 4.16406C19.4433 4.10397 19.4042 4.03723 19.375 3.96387C19.3229 2.73601 19.3229 1.50814 19.375 0.280273C19.4289 0.13211 19.52 0.0253395 19.6485 -0.0400391Z" fill="#0092E4"/>
<path opacity="0.973" fill-rule="evenodd" clip-rule="evenodd" d="M9.96094 2.60253C10.3299 2.52671 10.6294 2.63348 10.8594 2.92285C11.4445 3.89556 11.9784 4.89654 12.4609 5.92578C12.3001 6.52375 11.9355 6.71061 11.3672 6.48632C10.698 5.44824 10.099 4.36718 9.57031 3.24316C9.62445 2.97006 9.75469 2.75652 9.96094 2.60253Z" fill="#0077DA"/>
<path opacity="0.964" fill-rule="evenodd" clip-rule="evenodd" d="M29.3359 2.60253C30.1165 2.48132 30.416 2.80163 30.2343 3.56347C29.7333 4.51076 29.2125 5.445 28.6718 6.36621C28.4006 6.61913 28.1011 6.65917 27.7734 6.48632C27.4805 6.22715 27.4154 5.92019 27.5781 5.56542C28.1268 4.54602 28.7127 3.55839 29.3359 2.60253Z" fill="#00ADEE"/>
<path opacity="0.969" fill-rule="evenodd" clip-rule="evenodd" d="M20.8985 6.4463C20.8985 6.90008 20.8985 7.35385 20.8985 7.80762C19.6058 7.73813 18.3298 7.84491 17.0704 8.12794C16.996 7.68152 16.9699 7.22775 16.9922 6.76661C17.4704 6.64025 17.9652 6.54683 18.4766 6.48634C19.2835 6.44631 20.0907 6.43296 20.8985 6.4463Z" fill="#0090E3"/>
<path opacity="0.958" fill-rule="evenodd" clip-rule="evenodd" d="M20.8984 6.44629C21.662 6.49406 22.4172 6.60084 23.1641 6.7666C23.1866 7.25433 23.1605 7.7348 23.0859 8.20801C22.3736 7.99263 21.6444 7.85916 20.8984 7.80762C20.8984 7.35384 20.8984 6.90007 20.8984 6.44629Z" fill="#0098E6"/>
<path opacity="0.964" fill-rule="evenodd" clip-rule="evenodd" d="M16.9922 6.7666C16.9698 7.22774 16.9959 7.68151 17.0703 8.12793C16.3703 8.30482 15.6932 8.54506 15.0391 8.84863C15.0391 8.3415 15.0391 7.83431 15.0391 7.32715C15.6724 7.07808 16.3234 6.89123 16.9922 6.7666Z" fill="#0086DF"/>
<path opacity="0.962" fill-rule="evenodd" clip-rule="evenodd" d="M23.1641 6.7666C23.8683 6.94486 24.5454 7.18509 25.1953 7.4873C25.1953 7.96777 25.1953 8.44824 25.1953 8.92871C24.5086 8.64067 23.8055 8.40044 23.0859 8.20801C23.1605 7.7348 23.1866 7.25433 23.1641 6.7666Z" fill="#009FE9"/>
<path opacity="0.956" fill-rule="evenodd" clip-rule="evenodd" d="M15.0391 7.32715C15.0391 7.83431 15.0391 8.3415 15.0391 8.84863C14.2092 9.22036 13.428 9.67416 12.6953 10.21C12.7206 9.66111 12.6946 9.12722 12.6172 8.6084C13.3654 8.07804 14.1727 7.65095 15.0391 7.32715Z" fill="#007FDD"/>
<path opacity="0.952" fill-rule="evenodd" clip-rule="evenodd" d="M25.1953 7.4873C26.6887 8.08621 28.0168 8.9404 29.1797 10.0498C29.1022 10.6489 29.0762 11.2628 29.1016 11.8916C27.9634 10.6686 26.6614 9.68096 25.1953 8.92871C25.1953 8.44824 25.1953 7.96777 25.1953 7.4873Z" fill="#01AAED"/>
<path opacity="0.961" fill-rule="evenodd" clip-rule="evenodd" d="M12.6172 8.6084C12.6946 9.12722 12.7206 9.66111 12.6953 10.21C12.0241 10.7108 11.3991 11.2714 10.8203 11.8916C10.7428 11.2925 10.7168 10.6786 10.7422 10.0498C11.3083 9.4923 11.9333 9.01183 12.6172 8.6084Z" fill="#0078DA"/>
<path opacity="0.957" fill-rule="evenodd" clip-rule="evenodd" d="M2.85158 9.88965C3.06153 9.87651 3.26986 9.88989 3.47658 9.92969C4.40076 10.4433 5.31222 10.9771 6.21096 11.5312C6.45771 11.8093 6.49678 12.1163 6.32814 12.4521C6.06461 12.7302 5.76512 12.7969 5.42971 12.6523C4.57033 12.1452 3.71096 11.638 2.85158 11.1309C2.43814 10.7173 2.43814 10.3035 2.85158 9.88965Z" fill="#0061D1"/>
<path opacity="0.961" fill-rule="evenodd" clip-rule="evenodd" d="M36.4453 9.88965C37.1606 9.80869 37.4601 10.129 37.3437 10.8506C37.2525 10.944 37.1614 11.0374 37.0703 11.1309C36.2109 11.638 35.3515 12.1452 34.4921 12.6523C33.5561 12.7601 33.2957 12.3864 33.7109 11.5312C34.6273 10.9819 35.5387 10.4347 36.4453 9.88965Z" fill="#00BEF4"/>
<path opacity="0.959" fill-rule="evenodd" clip-rule="evenodd" d="M29.1797 10.0498C30.2006 10.9707 31.0339 12.0384 31.6797 13.2529C31.6276 14.1071 31.5756 14.9612 31.5234 15.8154C30.933 14.3643 30.1257 13.0563 29.1016 11.8916C29.0762 11.2628 29.1022 10.6489 29.1797 10.0498Z" fill="#00B2EF"/>
<path opacity="0.988" fill-rule="evenodd" clip-rule="evenodd" d="M19.0234 19.6592C18.9454 23.0355 18.9194 26.4255 18.9453 29.8291C18.2556 29.7527 17.6045 29.5659 16.9922 29.2685C17.018 23.2303 16.992 17.1977 16.9141 11.1709C17.2598 10.9633 17.6245 10.9099 18.0078 11.0107C18.1591 11.2276 18.1981 11.4678 18.125 11.7314C17.3163 14.5103 17.6158 17.1529 19.0234 19.6592Z" fill="#008CE1"/>
<path opacity="0.997" fill-rule="evenodd" clip-rule="evenodd" d="M16.9141 11.1709C16.992 17.1977 17.018 23.2303 16.9922 29.2686C16.2431 29.0183 15.566 28.6447 14.9609 28.1475C15.0651 22.8623 15.0651 17.5771 14.9609 12.292C15.5719 11.8544 16.2229 11.4807 16.9141 11.1709Z" fill="#0086DF"/>
<path opacity="0.957" fill-rule="evenodd" clip-rule="evenodd" d="M10.7422 10.0498C10.7168 10.6786 10.7428 11.2925 10.8203 11.8916C7.64181 15.7296 6.8215 20.0538 8.35938 24.8643C8.94406 26.4084 9.76438 27.7964 10.8203 29.0283C10.7428 29.6275 10.7168 30.2413 10.7422 30.8701C9.05156 29.2963 7.82758 27.4011 7.07031 25.1846C7.17448 22.0349 7.17448 18.8851 7.07031 15.7354C7.82758 13.5188 9.05156 11.6236 10.7422 10.0498Z" fill="#006ED7"/>
<path opacity="0.993" fill-rule="evenodd" clip-rule="evenodd" d="M14.9609 12.292C15.0651 17.5771 15.0651 22.8623 14.9609 28.1475C14.02 27.4766 13.2387 26.6492 12.6172 25.665C12.7211 22.0426 12.7211 18.4124 12.6172 14.7744C13.2387 13.7903 14.02 12.9628 14.9609 12.292Z" fill="#0080DD"/>
<path opacity="0.962" fill-rule="evenodd" clip-rule="evenodd" d="M31.6797 13.2529C33.017 15.4319 33.668 17.8209 33.6328 20.4199C33.6845 23.0485 33.0334 25.4642 31.6797 27.667C31.6276 26.7861 31.5755 25.9053 31.5234 25.0244C32.5636 21.9557 32.5636 18.8861 31.5234 15.8154C31.5755 14.9612 31.6276 14.1071 31.6797 13.2529Z" fill="#00B8F2"/>
<path opacity="0.985" fill-rule="evenodd" clip-rule="evenodd" d="M12.6172 14.7744C12.7211 18.4124 12.7211 22.0426 12.6172 25.665C10.4302 22.0382 10.4302 18.408 12.6172 14.7744Z" fill="#007ADB"/>
<path opacity="0.98" fill-rule="evenodd" clip-rule="evenodd" d="M7.07034 15.7354C7.1745 18.8851 7.1745 22.0349 7.07034 25.1846C6.29478 22.9578 6.07343 20.6623 6.40627 18.2979C6.5321 17.4077 6.75345 16.5535 7.07034 15.7354Z" fill="#0169D5"/>
<path opacity="0.993" fill-rule="evenodd" clip-rule="evenodd" d="M19.0234 19.6592C19.3075 20.0182 19.581 20.3919 19.8437 20.7803C20.2111 21.1434 20.5627 21.5172 20.8984 21.9014C20.8984 24.5974 20.8984 27.2933 20.8984 29.9893C20.2295 30.0167 19.5785 29.9633 18.9453 29.8291C18.9193 26.4255 18.9453 23.0355 19.0234 19.6592Z" fill="#0092E4"/>
<path fill-rule="evenodd" clip-rule="evenodd" d="M-0.0390625 20.7803C-0.0390625 20.5667 -0.0390625 20.3532 -0.0390625 20.1397C0.0247215 20.008 0.128888 19.9146 0.273438 19.8594C1.47135 19.806 2.66927 19.806 3.86719 19.8594C4.25922 20.1574 4.32432 20.5178 4.0625 20.9404C4.00387 20.9906 3.93877 21.0306 3.86719 21.0606C2.66927 21.114 1.47135 21.114 0.273438 21.0606C0.128888 21.0053 0.0247215 20.9119 -0.0390625 20.7803Z" fill="#005ACE"/>
<path fill-rule="evenodd" clip-rule="evenodd" d="M39.961 20.1397C39.961 20.3532 39.961 20.5667 39.961 20.7803C39.8972 20.9119 39.793 21.0053 39.6485 21.0606C38.4506 21.114 37.2526 21.114 36.0547 21.0606C35.6627 20.7625 35.5976 20.4021 35.8594 19.9795C35.918 19.9294 35.9831 19.8893 36.0547 19.8594C37.2526 19.806 38.4506 19.806 39.6485 19.8594C39.793 19.9146 39.8972 20.008 39.961 20.1397Z" fill="#00C4F7"/>
<path opacity="0.992" fill-rule="evenodd" clip-rule="evenodd" d="M20.8984 21.9014C21.5866 22.4738 22.3158 22.981 23.0859 23.4229C23.1633 25.4722 23.1894 27.5276 23.1641 29.5889C22.4373 29.8329 21.6821 29.9663 20.8984 29.9893C20.8984 27.2933 20.8984 24.5974 20.8984 21.9014Z" fill="#0098E6"/>
<path opacity="0.991" fill-rule="evenodd" clip-rule="evenodd" d="M23.0859 23.4229C23.7738 23.7113 24.477 23.9515 25.1953 24.1436C25.1953 25.665 25.1953 27.1865 25.1953 28.708C24.5792 29.13 23.9021 29.4236 23.1641 29.5889C23.1894 27.5276 23.1633 25.4722 23.0859 23.4229Z" fill="#009FE8"/>
<path opacity="0.982" fill-rule="evenodd" clip-rule="evenodd" d="M25.1953 24.1436C26.2593 24.3156 27.327 24.3422 28.3984 24.2236C28.7241 24.2182 28.9064 24.3783 28.9453 24.7041C28.1477 26.4826 26.8977 27.8173 25.1953 28.708C25.1953 27.1865 25.1953 25.665 25.1953 24.1436Z" fill="#00A6EB"/>
<path opacity="0.954" fill-rule="evenodd" clip-rule="evenodd" d="M31.5234 25.0244C31.5755 25.9053 31.6276 26.7861 31.6797 27.667C31.0417 28.9213 30.1823 29.9889 29.1016 30.8701C29.1506 30.2765 29.0985 29.716 28.9453 29.1885C30.0398 27.9603 30.8992 26.5723 31.5234 25.0244Z" fill="#00B2F0"/>
<path opacity="0.962" fill-rule="evenodd" clip-rule="evenodd" d="M34.1016 28.1475C35.1218 28.6304 36.1114 29.1776 37.0704 29.7891C37.487 30.1895 37.487 30.5898 37.0704 30.9902C36.862 31.0436 36.6537 31.0436 36.4454 30.9902C35.5212 30.4766 34.6097 29.9428 33.711 29.3887C33.3191 28.7924 33.4493 28.3786 34.1016 28.1475Z" fill="#00BFF4"/>
<path opacity="0.961" fill-rule="evenodd" clip-rule="evenodd" d="M5.42974 28.2275C6.36473 28.159 6.62514 28.546 6.21099 29.3887C5.31225 29.9428 4.40079 30.4766 3.47661 30.9902C2.80352 31.1277 2.50403 30.8475 2.57817 30.1494C2.63946 30.0064 2.73061 29.8863 2.85161 29.7891C3.72424 29.2795 4.58362 28.759 5.42974 28.2275Z" fill="#0061D1"/>
<path opacity="0.956" fill-rule="evenodd" clip-rule="evenodd" d="M10.8203 29.0283C11.427 29.6775 12.0781 30.2647 12.7734 30.79C12.7507 31.2979 12.6726 31.7784 12.5391 32.2314C11.8737 31.8697 11.2748 31.416 10.7422 30.8701C10.7168 30.2413 10.7428 29.6275 10.8203 29.0283Z" fill="#0079DB"/>
<path opacity="0.953" fill-rule="evenodd" clip-rule="evenodd" d="M12.7734 30.79C13.4902 31.2836 14.2455 31.7107 15.0391 32.0713C15.0391 32.5784 15.0391 33.0856 15.0391 33.5928C14.1336 33.2624 13.3003 32.8086 12.5391 32.2314C12.6726 31.7784 12.7507 31.2979 12.7734 30.79Z" fill="#027FDD"/>
<path opacity="0.957" fill-rule="evenodd" clip-rule="evenodd" d="M28.9454 29.1885C29.0986 29.716 29.1507 30.2765 29.1016 30.8701C28.0186 31.9518 26.7686 32.7793 25.3516 33.3525C25.1993 32.9333 25.1471 32.4795 25.1954 31.9912C26.5809 31.2538 27.8309 30.3195 28.9454 29.1885Z" fill="#00A7EC"/>
<path opacity="0.962" fill-rule="evenodd" clip-rule="evenodd" d="M25.1953 31.9912C25.1471 32.4795 25.1992 32.9333 25.3516 33.3525C24.6611 33.6901 23.932 33.9304 23.1641 34.0732C23.1641 33.6194 23.1641 33.1657 23.1641 32.7119C23.8529 32.5033 24.5299 32.2631 25.1953 31.9912Z" fill="#009FE9"/>
<path opacity="0.963" fill-rule="evenodd" clip-rule="evenodd" d="M15.0391 32.0713C16.2812 32.6432 17.5834 32.9902 18.9453 33.1123C18.9453 33.5661 18.9453 34.0198 18.9453 34.4736C17.6016 34.3637 16.2996 34.0701 15.0391 33.5928C15.0391 33.0856 15.0391 32.5784 15.0391 32.0713Z" fill="#008AE1"/>
<path opacity="0.951" fill-rule="evenodd" clip-rule="evenodd" d="M23.1641 32.7119C23.1641 33.1657 23.1641 33.6194 23.1641 34.0732C22.4095 34.3089 21.6282 34.4424 20.8203 34.4736C20.8945 34.054 20.9205 33.627 20.8984 33.1924C20.7976 33.2114 20.7195 33.1847 20.6641 33.1123C21.5116 33.0654 22.3448 32.9319 23.1641 32.7119Z" fill="#0098E6"/>
<path opacity="0.97" fill-rule="evenodd" clip-rule="evenodd" d="M18.9453 33.1123C19.5182 33.1123 20.0912 33.1123 20.6641 33.1123C20.7195 33.1847 20.7976 33.2114 20.8984 33.1924C20.9205 33.627 20.8945 34.054 20.8203 34.4736C20.1953 34.4736 19.5703 34.4736 18.9453 34.4736C18.9453 34.0198 18.9453 33.5661 18.9453 33.1123Z" fill="#0092E4"/>
<path opacity="0.972" fill-rule="evenodd" clip-rule="evenodd" d="M27.8516 34.3936C28.2771 34.3006 28.6026 34.4341 28.8282 34.7939C29.357 35.7446 29.8648 36.7056 30.3516 37.6768C30.2301 38.2465 29.8916 38.4467 29.336 38.2773C29.1634 38.1274 29.0202 37.9538 28.9063 37.7568C28.4636 36.9561 28.0209 36.1553 27.5782 35.3545C27.4682 34.9586 27.5593 34.6383 27.8516 34.3936Z" fill="#00ADEE"/>
<path opacity="0.979" fill-rule="evenodd" clip-rule="evenodd" d="M11.4453 34.3936C12.2132 34.2597 12.5127 34.5801 12.3437 35.3545C11.8067 36.3623 11.2208 37.3366 10.5859 38.2773C9.80494 38.4379 9.50549 38.131 9.68744 37.3564C10.198 36.3075 10.7839 35.3198 11.4453 34.3936Z" fill="#0176DA"/>
<path opacity="0.981" fill-rule="evenodd" clip-rule="evenodd" d="M20.2735 40.96C20.0651 40.96 19.8568 40.96 19.6485 40.96C19.52 40.8946 19.4289 40.7878 19.375 40.6397C19.3229 39.4118 19.3229 38.1839 19.375 36.9561C19.6658 36.5542 20.0174 36.4875 20.4297 36.7559C20.4786 36.8159 20.5177 36.8827 20.5469 36.9561C20.599 38.1839 20.599 39.4118 20.5469 40.6397C20.493 40.7878 20.4019 40.8946 20.2735 40.96Z" fill="#0092E4"/>
</g>
<defs>
<clipPath id="clip0_1_110">
<rect width="40" height="41" fill="white"/>
</clipPath>
</defs>
</svg>
