<svg width="40" height="41" viewBox="0 0 40 41" fill="none" xmlns="http://www.w3.org/2000/svg">
<g clip-path="url(#clip0_1_189)">
<path opacity="0.974" fill-rule="evenodd" clip-rule="evenodd" d="M19.6485 -0.0400391C19.8568 -0.0400391 20.0651 -0.0400391 20.2735 -0.0400391C20.4019 0.0253395 20.493 0.13211 20.5469 0.280273C20.599 1.50814 20.599 2.73601 20.5469 3.96387C20.2561 4.3657 19.9046 4.43243 19.4922 4.16406C19.4433 4.10397 19.4042 4.03723 19.375 3.96387C19.3229 2.73601 19.3229 1.50814 19.375 0.280273C19.4289 0.13211 19.52 0.0253395 19.6485 -0.0400391Z" fill="#FDBE00"/>
<path opacity="0.94" fill-rule="evenodd" clip-rule="evenodd" d="M9.96094 2.60253C10.3299 2.52671 10.6294 2.63348 10.8594 2.92285C11.4445 3.89556 11.9784 4.89654 12.4609 5.92578C12.3001 6.52375 11.9355 6.71061 11.3672 6.48632C10.698 5.44824 10.099 4.36718 9.57031 3.24316C9.62445 2.97006 9.75469 2.75652 9.96094 2.60253Z" fill="#FDBE00"/>
<path opacity="0.94" fill-rule="evenodd" clip-rule="evenodd" d="M29.3359 2.60253C30.1165 2.48132 30.416 2.80163 30.2343 3.56347C29.7333 4.51076 29.2125 5.445 28.6718 6.36621C28.4006 6.61913 28.1011 6.65917 27.7734 6.48632C27.4805 6.22715 27.4154 5.92019 27.5781 5.56542C28.1268 4.54602 28.7127 3.55839 29.3359 2.60253Z" fill="#FDBF00"/>
<path opacity="0.948" fill-rule="evenodd" clip-rule="evenodd" d="M18.4766 6.44628C24.5339 6.0865 29.0782 8.56891 32.1094 13.8935C33.7855 17.3691 34.098 20.9726 33.0469 24.7041C31.4767 29.3832 28.3908 32.4662 23.7891 33.9531C18.0841 35.3851 13.2795 33.8769 9.375 29.4287C6.38872 25.468 5.55538 21.0637 6.875 16.2158C8.85336 10.5975 12.7205 7.34092 18.4766 6.44628ZM18.6328 7.80761C23.8805 7.51389 27.9039 9.62258 30.7031 14.1338C32.6029 17.8251 32.8112 21.6154 31.3281 25.5049C29.3101 29.8678 25.9638 32.3902 21.2891 33.0723C15.962 33.4055 11.9125 31.2566 9.14062 26.626C6.69183 21.5102 7.16058 16.7055 10.5469 12.2119C12.7123 9.72076 15.4077 8.25268 18.6328 7.80761Z" fill="#FDBF00"/>
<path opacity="0.934" fill-rule="evenodd" clip-rule="evenodd" d="M2.85158 9.88965C3.06153 9.87651 3.26986 9.88989 3.47658 9.92969C4.40076 10.4433 5.31222 10.9771 6.21096 11.5312C6.45771 11.8093 6.49678 12.1163 6.32814 12.4521C6.06461 12.7302 5.76512 12.7969 5.42971 12.6523C4.57033 12.1452 3.71096 11.638 2.85158 11.1309C2.43814 10.7173 2.43814 10.3035 2.85158 9.88965Z" fill="#FDBE00"/>
<path opacity="0.937" fill-rule="evenodd" clip-rule="evenodd" d="M36.4453 9.88965C37.1607 9.80869 37.4602 10.129 37.3438 10.8506C37.2526 10.944 37.1615 11.0374 37.0703 11.1309C36.2109 11.638 35.3516 12.1452 34.4922 12.6523C33.5562 12.7601 33.2958 12.3864 33.7109 11.5312C34.6273 10.9819 35.5388 10.4347 36.4453 9.88965Z" fill="#FDBE00"/>
<path opacity="0.987" fill-rule="evenodd" clip-rule="evenodd" d="M17.4609 10.9307C17.8995 10.8338 18.1339 11.0073 18.1641 11.4512C16.968 15.8655 18.0878 19.5223 21.5234 22.4219C23.7113 23.9768 26.1332 24.6175 28.7891 24.3437C28.9817 24.5845 28.9948 24.8381 28.8281 25.1045C26.5288 28.8107 23.2346 30.3989 18.9453 29.8691C14.5919 28.8769 11.9747 26.1409 11.0938 21.6611C10.6835 18.1974 11.7122 15.2746 14.1797 12.8926C15.1706 12.0513 16.2644 11.3974 17.4609 10.9307Z" fill="#FDBE00"/>
<path opacity="0.977" fill-rule="evenodd" clip-rule="evenodd" d="M-0.0390625 20.7803C-0.0390625 20.5667 -0.0390625 20.3532 -0.0390625 20.1397C0.0247215 20.008 0.128888 19.9146 0.273438 19.8594C1.47135 19.806 2.66927 19.806 3.86719 19.8594C4.25922 20.1574 4.32432 20.5178 4.0625 20.9404C4.00387 20.9906 3.93877 21.0306 3.86719 21.0606C2.66927 21.114 1.47135 21.114 0.273438 21.0606C0.128888 21.0053 0.0247215 20.9119 -0.0390625 20.7803Z" fill="#FDBE00"/>
<path opacity="0.98" fill-rule="evenodd" clip-rule="evenodd" d="M39.961 20.1397C39.961 20.3532 39.961 20.5667 39.961 20.7803C39.8972 20.9119 39.793 21.0053 39.6485 21.0606C38.4506 21.114 37.2526 21.114 36.0547 21.0606C35.6627 20.7625 35.5976 20.4021 35.8594 19.9795C35.918 19.9294 35.9831 19.8893 36.0547 19.8594C37.2526 19.806 38.4506 19.806 39.6485 19.8594C39.793 19.9146 39.8972 20.008 39.961 20.1397Z" fill="#FDBE00"/>
<path opacity="0.94" fill-rule="evenodd" clip-rule="evenodd" d="M5.42967 28.2275C6.36467 28.159 6.62508 28.546 6.21092 29.3887C5.31219 29.9428 4.40073 30.4766 3.47655 30.9902C2.80346 31.1277 2.50397 30.8475 2.57811 30.1494C2.6394 30.0064 2.73055 29.8863 2.85155 29.7891C3.72418 29.2795 4.58356 28.759 5.42967 28.2275Z" fill="#FDBF00"/>
<path opacity="0.937" fill-rule="evenodd" clip-rule="evenodd" d="M34.1015 28.1475C35.1218 28.6304 36.1114 29.1776 37.0703 29.7891C37.4869 30.1895 37.4869 30.5898 37.0703 30.9902C36.8619 31.0436 36.6536 31.0436 36.4453 30.9902C35.5211 30.4766 34.6097 29.9428 33.7109 29.3887C33.319 28.7924 33.4492 28.3786 34.1015 28.1475Z" fill="#FDBF00"/>
<path opacity="0.942" fill-rule="evenodd" clip-rule="evenodd" d="M11.4453 34.3936C12.2133 34.2597 12.5127 34.5801 12.3438 35.3545C11.8068 36.3623 11.2209 37.3366 10.5859 38.2773C9.805 38.4379 9.50555 38.131 9.6875 37.3564C10.1981 36.3075 10.784 35.3198 11.4453 34.3936Z" fill="#FDBF00"/>
<path opacity="0.939" fill-rule="evenodd" clip-rule="evenodd" d="M27.8515 34.3936C28.277 34.3006 28.6026 34.4341 28.8281 34.7939C29.3569 35.7446 29.8647 36.7056 30.3515 37.6768C30.2301 38.2465 29.8915 38.4467 29.3359 38.2773C29.1633 38.1274 29.0201 37.9538 28.9062 37.7568C28.4635 36.9561 28.0208 36.1553 27.5781 35.3545C27.4682 34.9586 27.5593 34.6383 27.8515 34.3936Z" fill="#FDBE00"/>
<path opacity="0.973" fill-rule="evenodd" clip-rule="evenodd" d="M20.2735 40.96C20.0651 40.96 19.8568 40.96 19.6485 40.96C19.52 40.8946 19.4289 40.7878 19.375 40.6397C19.3229 39.4118 19.3229 38.1839 19.375 36.9561C19.6658 36.5542 20.0174 36.4875 20.4297 36.7559C20.4786 36.8159 20.5177 36.8827 20.5469 36.9561C20.599 38.1839 20.599 39.4118 20.5469 40.6397C20.493 40.7878 20.4019 40.8946 20.2735 40.96Z" fill="#FDBE00"/>
</g>
<defs>
<clipPath id="clip0_1_189">
<rect width="40" height="41" fill="white"/>
</clipPath>
</defs>
</svg>
